{"title":"Croching.Tiger.Hidden.Dragon.2000.SWESUB.DVDRip.XviD.-Zen_Bud","uid":5719839,"size":1467928576,"categoryP":"video","categoryS":"movies","magnet":"?xt=urn:btih:76b1256e710fb6ad28b8a3732529cfabce1dda9e&amp;dn=Croching.Tiger.Hidden.Dragon.2000.SWESUB.DVDRip.XviD.-Zen_Bud&amp;tr=udp%3A%2F%2Ftracker.openbittorrent.com%3A80&amp;tr=udp%3A%2F%2Fopen.demonii.com%3A1337&amp;tr=udp%3A%2F%2Ftracker.coppersurfer.tk%3A6969&amp;tr=udp%3A%2F%2Fexodus.desync.com%3A6969","seeders":0,"leechers":4,"uploader":"Zen_Bud","files":1,"time":1280248127,"description":"General\nComplete name                    : Croching.Tiger.Hidden.Dragon.avi\nFormat                           : AVI\nFile size                        : 1.37 GiB\nDuration                         : 1h 55mn\nOverall bit rate                 : 1 697 Kbps\n\n\nVideo\n\nFormat                           : MPEG-4 Visual\nCodec ID/Hint                    : XviD\nDuration                         : 1h 55mn\nBit rate                         : 1 559 Kbps\nWidth                            : 720 pixels\nHeight                           : 420 pixels\nDisplay aspect ratio             : 16:9\nStream size                      : 1.26 GiB (92%)\nWriting library                  : XviD 1.2.1 (UTC 2008-12-04)\n\nAudio\n\nFormat                           : MPEG Audio\nCodec ID/Hint                    : MP3\nDuration                         : 1h 55mn\nBit rate                         : 128 Kbps\nChannel(s)                       : 2 channels\nSampling rate                    : 48.0 KHz\nStream size                      : 106 MiB (8%)\nWriting library                  : LAME3.97b","torrent":{"xt":"urn:btih:76b1256e710fb6ad28b8a3732529cfabce1dda9e","amp;dn":"Croching.Tiger.Hidden.Dragon.2000.SWESUB.DVDRip.XviD.-Zen_Bud","amp;tr":["udp%3A%2F%2Ftracker.openbittorrent.com%3A80","udp%3A%2F%2Fopen.demonii.com%3A1337","udp%3A%2F%2Ftracker.coppersurfer.tk%3A6969","udp%3A%2F%2Fexodus.desync.com%3A6969"],"infoHash":"76b1256e710fb6ad28b8a3732529cfabce1dda9e","infoHashBuffer":{"type":"Buffer","data":[118,177,37,110,113,15,182,173,40,184,163,115,37,41,207,171,206,29,218,158]},"announce":[],"urlList":[]}}